<?xml version="1.0" standalone="no"?>
<!DOCTYPE svg PUBLIC "-//W3C//DTD SVG 20010904//EN"
 "http://www.w3.org/TR/2001/REC-SVG-20010904/DTD/svg10.dtd">
<svg version="1.0" xmlns="http://www.w3.org/2000/svg"
 width="512.000000pt" height="512.000000pt" viewBox="0 0 512.000000 512.000000"
 preserveAspectRatio="xMidYMid meet">
<metadata>
Created by potrace 1.11, written by Peter Selinger 2001-2013
</metadata>
<g transform="translate(0.000000,512.000000) scale(0.100000,-0.100000)"
fill="#000000" stroke="none">
<path d="M2864 5088 c-36 -44 -56 -93 -60 -148 -1 -25 -3 -48 -3 -52 -1 -7
-41 -21 -126 -43 -56 -15 -61 -15 -75 2 -27 33 -115 100 -140 108 -80 25 -143
-3 -212 -96 -27 -35 -67 -86 -88 -113 -45 -54 -52 -92 -19 -105 21 -7 21 -8
-6 -29 -15 -12 -32 -22 -38 -22 -29 0 -217 -177 -269 -254 -45 -65 -109 -198
-129 -265 -8 -29 -24 -52 -47 -70 -79 -60 -118 -100 -160 -166 -89 -139 -153
-250 -203 -354 -28 -58 -54 -108 -58 -111 -13 -9 -69 -113 -91 -170 -19 -49
-59 -207 -75 -298 -3 -18 -1 -49 4 -67 13 -48 -5 -107 -60 -190 -26 -38 -51
-86 -57 -107 -13 -49 -6 -131 16 -177 l18 -37 -38 -28 c-97 -70 -206 -272
-292 -541 -14 -44 -28 -102 -31 -129 -3 -27 -6 -51 -8 -52 -1 -2 -66 -4 -142
-5 -80 -1 -157 -7 -180 -14 -22 -7 -34 -13 -27 -14 6 -1 12 -11 12 -23 0 -19
-2 -20 -10 -8 -12 19 -11 29 -15 -125 -1 -71 -10 -175 -20 -230 -16 -97 -21
-264 -11 -335 3 -19 8 -62 11 -95 4 -33 9 -78 11 -100 3 -22 7 -53 9 -70 7
-57 27 -140 36 -149 5 -6 28 -9 51 -9 34 1 38 0 18 -6 -24 -8 -24 -8 10 -15
83 -15 224 -12 375 9 28 4 174 8 325 9 l276 2 32 -42 c45 -60 108 -100 241
-155 64 -26 166 -70 226 -99 156 -73 167 -78 200 -84 27 -6 26 -4 -10 14 -22
11 -29 17 -16 14 l24 -6 -21 29 c-21 30 -83 92 -117 118 -26 19 144 -47 190
-74 28 -16 35 -17 35 -6 0 17 -95 95 -115 95 -8 0 -17 5 -21 12 -4 6 -3 8 3 5
6 -4 33 -9 59 -11 27 -3 71 -7 97 -11 46 -6 48 -5 37 14 -12 23 -77 64 -135
85 -22 7 -60 26 -85 40 l-45 27 40 -5 c22 -3 64 -10 94 -16 80 -15 91 -13 62
10 -14 12 -18 20 -10 20 22 1 -31 28 -86 45 -27 8 -75 17 -105 20 -180 17
-226 30 -260 73 -20 24 -20 26 -2 42 14 13 18 29 15 64 l-4 47 34 -3 c20 -1
41 4 50 13 11 12 34 15 98 13 163 -6 190 13 209 145 6 48 14 97 16 111 2 14 7
59 10 100 4 54 11 78 22 84 27 16 62 54 61 68 0 10 -2 10 -6 1 -2 -7 -9 -13
-15 -13 -6 0 -6 6 2 15 7 8 16 13 20 10 12 -7 41 36 87 130 62 122 112 277
129 395 4 30 8 57 9 60 6 21 18 153 18 192 0 56 9 64 63 53 27 -5 34 -9 25
-18 -6 -6 -11 -16 -11 -22 0 -14 43 -35 69 -35 18 0 40 -11 196 -95 125 -67
153 -89 293 -228 126 -125 204 -227 216 -284 9 -41 32 -61 54 -46 10 6 16 16
15 22 -5 20 15 11 20 -9 3 -11 2 -18 -2 -16 -4 3 -7 -57 -6 -132 0 -75 -3
-155 -7 -177 -4 -22 -11 -62 -17 -90 -13 -67 -12 -230 1 -285 31 -127 111
-241 205 -293 39 -21 293 -92 393 -110 54 -10 151 -47 186 -71 21 -14 40 -24
42 -22 5 6 -18 49 -32 59 -6 5 5 6 25 3 46 -8 57 12 27 49 -11 14 -18 29 -14
32 3 3 1 12 -5 20 -15 17 -9 16 29 -3 46 -22 91 -34 97 -24 8 12 -10 52 -36
81 -26 28 -112 89 -126 89 -5 0 -18 6 -29 14 -12 10 11 6 70 -10 48 -14 92
-24 97 -22 5 2 -9 24 -31 50 -35 40 -119 93 -164 103 -6 1 -18 5 -26 8 -8 3
-44 13 -80 22 -130 32 -234 76 -244 102 -6 16 7 16 71 3 26 -5 59 -12 73 -14
14 -2 42 -11 62 -20 47 -20 180 -40 211 -32 15 3 30 18 37 36 14 34 30 31 30
-7 0 -24 2 -25 39 -20 31 4 38 2 34 -9 -10 -28 25 -24 101 12 43 19 88 37 101
38 31 3 61 34 47 48 -8 8 -6 115 2 125 8 9 76 32 71 24 -6 -11 7 -15 35 -12 8
1 63 25 122 52 59 28 111 49 115 46 4 -2 16 4 25 14 15 16 15 19 2 27 -8 4
-25 48 -38 98 -13 49 -40 134 -59 189 -35 99 -82 257 -91 305 -2 14 -7 36 -10
50 -3 14 -8 36 -10 50 -6 37 -44 163 -55 179 -5 8 -16 11 -25 8 -9 -4 -74 12
-144 34 -214 67 -206 63 -219 118 -31 130 -117 279 -156 269 -11 -2 -8 -17 16
-68 17 -36 45 -102 62 -146 l32 -82 -30 9 c-17 5 -49 11 -71 15 -61 9 -60 9
-72 16 -6 4 -16 32 -23 63 -11 51 -51 115 -71 115 -11 0 -6 -40 14 -115 l15
-57 -52 7 c-29 3 -72 9 -97 12 -25 3 -52 7 -60 9 -8 1 -21 3 -28 3 -21 1 -7
129 24 214 14 40 28 80 31 89 3 10 10 15 15 12 5 -3 8 2 6 11 -2 10 14 31 41
53 30 25 40 30 31 15 -12 -18 -12 -28 0 -63 7 -22 18 -44 25 -48 6 -4 18 -19
27 -34 15 -23 15 -27 2 -32 -8 -3 -12 -11 -8 -17 21 -34 159 47 201 118 45 77
29 223 -39 363 -18 36 -33 76 -34 90 -3 42 -64 306 -84 365 -21 61 -48 101
-86 126 -13 8 -45 45 -69 80 -50 70 -105 131 -175 189 -128 109 -354 291 -373
302 -12 6 -42 27 -67 47 -25 19 -47 37 -49 38 -5 3 -2 93 4 154 20 208 181
480 325 548 101 47 7 106 -243 151 -61 11 -111 20 -111 20 -1 0 -2 11 -2 25
-3 38 -49 126 -86 164 -60 61 -112 67 -154 19z m631 -1778 c28 -21 64 -43 80
-50 24 -11 40 -34 83 -124 72 -151 101 -252 98 -341 -3 -59 -10 -82 -45 -148
-55 -105 -54 -162 2 -208 21 -16 21 -16 -16 -105 -21 -49 -41 -114 -46 -144
-5 -30 -9 -56 -10 -57 -1 -2 -1 -12 -1 -24 0 -18 -4 -20 -25 -15 -14 4 -24 2
-23 -3 2 -5 1 -9 -2 -9 -10 1 -89 -42 -104 -57 -17 -18 -5 -34 -110 144 -108
181 -152 236 -261 322 l-64 50 46 70 c127 197 171 366 173 675 1 66 -2 132 -5
147 -7 25 -4 24 86 -30 52 -31 117 -73 144 -93z m-2154 -1042 c-10 -64 -17
-128 -16 -142 0 -16 -5 -26 -13 -26 -7 0 -10 5 -7 10 3 6 1 10 -4 10 -23 0
-10 -32 17 -41 26 -9 28 -13 30 -76 2 -36 4 -69 7 -72 2 -4 6 -38 10 -76 4
-39 9 -73 12 -77 3 -6 -155 -5 -201 1 -4 0 -5 9 -1 19 4 9 9 85 11 167 2 83 5
166 8 185 15 108 19 120 37 120 25 0 32 15 14 30 -21 18 -10 28 31 28 20 0 41
5 47 11 6 6 7 11 2 11 -4 0 0 9 10 20 10 11 20 19 21 17 2 -2 -5 -55 -15 -119z
m-323 20 c8 -8 41 -12 86 -12 l74 1 -14 -40 c-23 -65 -25 -85 -30 -245 -3
-113 -1 -161 9 -185 l14 -32 -61 -1 c-34 0 -86 -3 -118 -7 -56 -6 -56 -6 -67
23 -10 30 -30 41 -32 18 0 -7 -2 -22 -5 -33 -2 -11 1 -33 7 -50 5 -16 12 -57
15 -91 l5 -61 -125 -1 -125 -2 14 43 c8 23 21 64 30 92 27 82 125 326 157 390
33 64 133 205 146 205 4 0 14 -6 20 -12z m2617 -217 c3 -6 -3 -14 -13 -20 -14
-8 -18 -6 -18 10 0 20 20 26 31 10z m-2168 -42 c14 -5 26 -22 32 -46 30 -112
52 -206 48 -210 -4 -3 -84 -7 -113 -4 -5 1 -11 18 -13 39 -1 20 -4 51 -5 67
-2 17 -7 63 -11 103 l-7 74 24 -7 c12 -4 33 -11 45 -16z m161 -55 c17 -7 32
-10 32 -7 0 16 12 -10 40 -88 42 -118 42 -118 -30 -115 -33 2 -62 5 -65 7 -2
3 -13 51 -25 109 -12 57 -24 108 -27 113 -6 10 21 3 75 -19z"/>
</g>
</svg>
