<?xml version="1.0" encoding="iso-8859-1"?>
<!-- Generator: Adobe Illustrator 21.1.0, SVG Export Plug-In . SVG Version: 6.00 Build 0)  -->
<svg version="1.1" id="_x31_2" xmlns="http://www.w3.org/2000/svg" xmlns:xlink="http://www.w3.org/1999/xlink" x="0px" y="0px"
	 viewBox="0 0 512 512" style="enable-background:new 0 0 512 512;" xml:space="preserve">
<g>
	<polygon style="fill:#F7B52C;" points="431.956,410.162 347.969,399.164 344.97,316.177 370.966,317.177 437.955,328.175 
		446.954,335.174 459.952,401.164 	"/>
	<polygon style="fill:#F7B52C;" points="344.97,316.177 365.966,305.179 459.952,324.176 446.954,335.174 411.959,330.175 
		364.967,317.177 	"/>
	<path style="fill:#F7B52C;" d="M461.952,331.175c0,3,10.093,43.472,13.998,55.991c3.905,12.519,8.999,23.996,8.999,23.996
		l-33.995,14.998l-2-48.992l-2-41.993l12.998-10.998L461.952,331.175z"/>
	<path style="fill:#EEEEEF;" d="M353.968,334.174l62.99,3c0,0,1.88,100.594,0,104.984c-1.879,4.39-1.879,4.39-1.879,4.39
		l-7.119,0.61l-56.991-9.998l-2-66.99L353.968,334.174z"/>
	<path style="fill:#DBDCDC;" d="M418.958,448.157c0,0,15.009-1.27,18.997-4.999c3.988-3.729,8.999-4.999,8.999-4.999l3.999-11.998
		l-3.999-90.986l-29.995,2L418.958,448.157z"/>
	<path style="fill:#94C85C;" d="M170.997,111.209c1-3-2-21.997,37.994-56.991c13.998-7.999,10.998-15.998,16.997-25.996
		c5.999-9.998,14.998-13.998,19.997-9.998c4.999,3.999,18.997,12.998,18.997,12.998s12.998-2,15.997-5.999
		c3-3.999,3-11.998,6.999-18.997c3.999-6.999,9.999-3,13.998,4.999c3.999,7.999,8.999,14.998,8.999,14.998
		s28.995,3.999,33.995,6.999c4.999,3-2,5.999-14.998,8.999c-12.998,3-34.995,6.999-49.992,20.997
		c-14.998,13.998,24.996,44.993,36.994,52.992c11.998,7.999,58.991,39.994,70.989,66.99c11.998,26.996,9.998,34.995,13.998,42.993
		c3.999,7.999,8.999,16.997,8.999,26.996c0,9.998-1,19.997-16.997,27.996c-5.999-3.999-6.999-19.997-6.999-19.997l-9.999,8.999
		c0,0-9.998,0-3.999-18.997c5.999-18.997,8.999-24.996,3-38.994c-5.999-13.998-11.998-21.997-16.997-26.996
		c-4.999-4.999-17.997-21.997-32.995-21.997c-14.998,0-36.994,31.995-27.996,57.991s3,33.995,6.999,36.994
		c3.999,2.999,24.996,22.996,38.994,53.992c13.998,30.995,20.55,59.078,22.997,69.989c2.446,10.911-3.999,28.995-4.999,41.993
		c-1,12.998,3.999,21.997,15.998,26.996c11.998,4.999,33.995,3.999,46.993,19.997c-9.999-3-21.997-5.999-21.997-5.999
		s20.997,7.999,24.996,20.997c-4.999,2-23.603-11.098-29.995-10.998c-6.392,0.1,16.997,6.999,19.997,14.998
		c3,7.999-9.999,0-21.997-2.999c-11.998-3-35.995-5.999-43.993-10.998c-7.999-4.999-19.997-15.998-17.997-36.994
		c2-20.997,4.716-52.31,1-59.991c-3.717-7.681-18.997-29.995-39.994-43.993c-20.997-13.998-35.994-24.996-35.994-24.996l-16.997-3
		c0,0-10.698,57.85-17.997,71.989c-7.299,14.139-12.998,16.997-12.998,16.997s-23.996,8.999-32.995,23.996
		c-8.999,14.998-16.997,35.994-12.998,41.993c3.999,5.999,28.098,6.933,37.994,9.999c9.896,3.066,10.998,6.999,10.998,6.999
		l-22.997-3.999c0,0,24.996,14.998,27.996,16.997c2.999,2-37.994-4.999-35.995-3c15.998,8.999,20.997,18.997,20.997,18.997
		s-17.997-7.999-29.995-12.998c-11.998-4.999-25.996-6.999-33.995-17.997c-7.999-10.998-10.998-22.996,0-42.993
		c10.998-19.997,27.996-42.993,34.995-55.991c6.999-12.998-0.644-56.259-6.999-68.989c-6.355-12.73-11.998-23.996-11.998-23.996
		s-9.998-22.996-12.998-23.996c-2.999-1-4.999,13.998-12.998,14.998c-3,3-8.999,3.999-8.999,3.999s-13.998,7.999-17.997,1
		c-3.999-6.999-5.999-18.997-2-27.996c3.999-8.999,5.999-16.997,5.999-16.997s6.999-42.993,18.997-65.99
		c11.998-22.996,30.028-52.478,35.995-54.991C167.964,112.695,170.997,111.209,170.997,111.209z"/>
	<path style="fill:#FFFFFF;" d="M261.983,71.215c-9.999,9.998-24.996,23.996-16.997,35.994c7.999,11.998-3,49.992-14.998,64.99
		c-11.998,14.998-43.993,38.994-35.994,74.988c7.999,35.994,24.996,46.993,48.992,51.992c23.996,4.999,37.994-14.998,52.992-35.995
		c14.998-20.997,27.016-45.699,28.995-66.99c1.98-21.29-4.999-38.994-7.999-51.992c-3-12.998-11.998-34.995-6.999-52.992
		c4.999-17.997,19.469-39.356,26.996-44.993c7.527-5.637,3.999-7.999,3.999-7.999s-34.995,8.999-45.993,14.998
		C283.979,59.217,261.983,71.215,261.983,71.215z"/>
	<path style="fill:#FF6B64;" d="M28.019,358.171c11.998-1,104.679,2.153,107.983,1c3.304-1.154,3.999,110.983,3.999,110.983
		l-55.991-1c0,0-44.993,2-51.992,3c-6.999,1-3.999-11.998-3.999-26.996c0-14.998-3.999-41.993-3.999-41.993
		s5.999-18.997,4.999-23.996C28.019,374.168,28.019,358.171,28.019,358.171z"/>
	<polygon style="fill:#E73828;" points="142.001,359.17 162.998,359.17 162.998,452.156 140.001,470.153 140.001,382.167 
		136.002,359.17 	"/>
	<path style="fill:#88DDFF;" d="M132.003,301.179l85.987,23.996c0,0-2-83.987-2-86.987c0-3-73.989-29.995-73.989-29.995
		s-6.999,15.997-5.999,26.996c1,10.998,6.999,25.996,6.999,25.996l-6.999,11.998L132.003,301.179z"/>
	<path style="fill:#46C2F2;" d="M236.986,224.191c0,0,2,24.996,3,32.995c1,7.999,2.999,41.993,2.999,41.993l-24.996,25.996
		l-2-86.987L236.986,224.191z"/>
	<polygon style="fill:#2CA6E0;" points="238.986,221.192 165.997,198.195 142.001,208.194 215.99,238.189 	"/>
	<polygon style="fill:#FFF573;" points="93.009,359.17 92.009,336.174 177.995,337.174 177.995,443.157 164.997,443.157 
		162.998,359.17 	"/>
	<path style="fill:#FFF000;" d="M182.995,340.173l24.996,7.999l-3.999,90.986l-11.998,3.999h-13.998V342.173
		C177.995,342.173,176.175,339.007,182.995,340.173z"/>
	<g>
		<path style="fill:#231815;" d="M237.483,16.059c-6.641,2.023-10.587,6.514-14.327,12.097c-1.663,2.483-3.19,5.116-5.125,7.405
			c-1.961,2.321-5.256,4.459-5.861,7.65c-1.6,8.425,7.756,3.578,9.832-0.866c2.732-5.849,4.002-12.307,8.112-17.514
			c3.624-4.592,9.401-7.301,14.999-4.642c4.529,2.152,9.042,12.045,14.036,11.845c7.478-0.299-3.133-8.452-4.619-9.694
			C249.608,18.227,244.335,14.177,237.483,16.059z"/>
		<path style="fill:#231815;" d="M280.487,15.821c2.379-8.187,7.171-20.871,17.854-13.707c3.801,2.549,6.651,6.777,8.723,10.781
			c0.929,1.795,4.999,9.701,3.05,11.807c0.27-0.292-7.234-10.403-7.615-10.955c-2.141-3.102-6.098-9.532-10.62-8.401
			c-7.853,1.964-4.622,20.392-11.371,20.746C280.277,26.103,280.523,17.038,280.487,15.821z"/>
		<path style="fill:#231815;" d="M328.097,41.05c-13.922,3.381-27.632,7.977-40.624,14.036c-10.722,5-22.508,10.941-31.162,19.166
			c-3.168,3.011-9.548,9.541-8.905,14.488c0.857,6.596,7.879-1.581,9.79-3.573c8.252-8.602,15.746-16.612,26.06-22.82
			c11.61-6.989,24.347-12.153,37.346-15.914c5.822-1.685,11.721-2.962,17.682-4.05c2.58-0.471,7.867-0.392,10.008-2.181
			c5.927-4.951-5.548-9.089-9.268-10.218c-6.122-1.857-12.467-2.996-18.757-4.113c-2.973-0.528-13.492-3.14-15.713,0.295
			c-1.608,2.486,3.066,3.134,4.841,3.52c7.027,1.528,14.381,1.455,21.479,2.673c2.841,0.488,9.534,0.819,11.919,3.13
			c2.454,2.378,0.102,2.414-2.374,2.888C336.291,39.165,332.175,40.036,328.097,41.05z"/>
		<path style="fill:#231815;" d="M243.808,81.131c3.501-4.482-1.951-4.04-4.129,0.221c-2.027,3.966-2.512,10.016-0.814,14.187
			c4.288,10.533,18.482,2.642,24.266-2.256c2.419-2.049,3.526-4.324-0.404-3.325c-4.142,1.052-7.01,6.089-11.147,7.722
			C239.134,102.594,238.649,88.782,243.808,81.131z"/>
		<path style="fill:#231815;" d="M316.606,81.344c-6.464,20.374-4.698,41.023,2.439,60.856c3.878,10.777,7.277,21.186,7.908,32.704
			c0.585,10.677-0.275,21.395-1.308,32.016c-1.879,19.309-10.648,37.432-22.209,52.808c-6.122,8.142-12.914,15.997-20.81,22.479
			c-5.465,4.486-15.031,11.775-22.663,9.22c7.051,2.361,17.116-7.478,21.419-11.676c7.227-7.05,13.513-15.12,19.307-23.369
			c10.907-15.53,18.736-32.81,20.374-51.852c0.935-10.865,1.629-21.88,0.502-32.757c-1.005-9.698-4.558-18.533-7.65-27.688
			c-5.934-17.573-7.865-35.185-4.592-53.549c2.176-12.214,6.919-22.514,14.502-32.3c3.422-4.416,7.129-8.72,11.368-12.377
			c1.362-1.176,2.772-2.328,4.294-3.293c0.043-0.027,5.19-2.354,5.012-1.986c-1.159,2.38-5.957,4.881-7.923,6.937
			c-3.527,3.689-6.625,7.797-9.491,12.013C322.453,66.345,318.58,73.307,316.606,81.344z"/>
		<path style="fill:#231815;" d="M265.035,28.325c2.835-0.206,22.445-7.671,23.739-3.459c0.542,1.762-14.309,6.964-16.238,7.453
			c-2.423,0.614-7.048,1.502-9.366,0.941C258.019,32.014,262.813,30.144,265.035,28.325z"/>
		<path style="fill:#231815;" d="M202.752,64.62c-8.266,6.044-15.558,15.457-20.65,24.268c-0.827,1.431-13.498,24.507-14.138,23.807
			c-0.829-0.907,3.32-11.515,3.67-12.453c3.069-8.216,7.265-16.102,12.259-23.299c3.001-4.325,6.715-7.749,10.501-11.376
			c1.092-1.046,14.332-13.24,15.363-12.484C211.88,54.653,203.887,63.226,202.752,64.62z"/>
		<path style="fill:#231815;" d="M217.875,137.996c-12.814,5.624-24.731,11.316-36.562,18.863
			c-5.363,3.421-10.656,6.982-15.587,11.008c-1.29,1.053-8.567,6.141-8.693,7.58c0.593-6.77,10.081-14.238,14.87-17.773
			c7.065-5.216,14.513-10.356,22.012-14.929c4.077-2.486,36.264-14.719,36.01-15.401
			C230.79,129.676,219.601,136.772,217.875,137.996z"/>
		<path style="fill:#231815;" d="M148.57,195.446c-6.653,13.736-10.564,28.003-10.436,43.473c0.059,7.198,4.805,12.841,5.323,19.807
			c0.26,3.494-0.42,7.191-2.683,9.942c-0.877,1.067-7.03,3.462-6.894,3.043c0.126-0.388,3.375-1.765,3.96-2.426
			c1.513-1.711,2.009-4.143,2.081-6.355c0.149-4.585-2.101-8.332-3.814-12.415c-3.919-9.34-2.519-19.032-1.675-28.873
			c0.634-7.396,2.957-14.361,6.094-21.079c1.007-2.157,12.263-23.442,12.998-22.468C154.719,179.677,149.231,193.059,148.57,195.446
			z"/>
		<path style="fill:#231815;" d="M125.3,267.265c-3.281,6.881,1.149,6.197,5.696,8.854c5.081,2.969-3.428,3.648-6.036,2.81
			c-5.137-1.651-6.926-5.608-5.303-10.457c0.377-1.128,1.723-6.653,3.866-6.367C124.871,262.285,125.09,266.211,125.3,267.265z"/>
		<path style="fill:#231815;" d="M112.57,272.591c-1.965,8.393,9.205,6.111,12.457,10.022c2.915,3.507-8.564,1.91-10.49,1.182
			c-5.33-2.014-7.651-5.602-6.871-11.427c0.17-1.271,0.882-4.868,2.754-4.69C111.765,267.808,111.873,271.306,112.57,272.591z"/>
		<path style="fill:#231815;" d="M106.96,247.39c-4.906,6.38-8.577,14.337-7.048,22.523c0.682,3.652,2.222,7.232,4.639,10.077
			c1.348,1.587,5.547,3.545,6.39,5.19c-0.083-0.162-6.373-0.819-7.3-1.303c-3.303-1.723-5.344-4.82-6.791-8.156
			c-2.787-6.427-3.441-14.462-0.309-20.86c2.482-5.068,5.891-10.535,9.88-14.496c0.581-0.577,3.834-3.997,4.619-2.434
			C111.528,238.903,107.491,245.896,106.96,247.39z"/>
		<path style="fill:#231815;" d="M167.941,116.286c-10.022,6.47-16.128,17.306-22.463,27.177c-3.099,4.83-5.616,10.018-9.181,14.53
			c-0.564,0.714-8.192,10.526-7.598,10.771c-4.112-1.693,17.284-34.771,19.13-37.856c3.31-5.528,6.689-10.389,11.72-14.57
			c1.091-0.907,17.307-12.537,17.986-11.376C178.68,106.916,169.429,114.786,167.941,116.286z"/>
		<path style="fill:#231815;" d="M122.234,185.24c-3.81,8.304-6.008,17.351-8.437,26.124c-1.812,6.545-3.092,14.273-6.059,20.406
			c0.136-0.281-1.27-4.436-1.322-5.466c-0.163-3.242,0.498-6.428,1.222-9.566c1.388-6.012,2.547-12.167,4.119-18.128
			c1.044-3.959,2.984-7.756,4.476-11.578c0.159-0.408,7.12-14.674,8.354-12.205C125.209,175.969,122.465,183.387,122.234,185.24z"/>
		<path style="fill:#231815;" d="M323.299,273.63c11.335,15.661,22.073,33.14,29.329,51.086c3.357,8.303,6.044,16.889,8,25.629
			c0.92,4.111,4.113,13.704,2.471,17.802c0.713-1.781-3.056-8.406-3.73-10.248c-1.821-4.976-3.479-10.008-5.128-15.042
			c-4.007-12.231-8.785-24.059-15.725-34.948c-5.379-8.44-9.644-17.5-15.255-25.803c-3.354-4.964-7.006-9.732-10.833-14.341
			c-1.122-1.351-6.734-6.359-6.434-8.292c0.119-0.764,8.66,5.942,9.227,6.436C318.036,268.359,320.682,270.974,323.299,273.63z"/>
		<path style="fill:#231815;" d="M253.036,315.691c7.677-0.313,11.894,4.174,18.316,7.526c8.237,4.3,17.163,8.28,23.676,15.086
			c10.473,10.942,24.759,21.846,31,36.037c0.955,2.171,1.238,7.952,4.309,7.677c5.382-0.483,2.267-8.286,0.917-10.53
			c-4.432-7.371-10.698-13.913-16.78-19.913c-4.958-4.891-10.405-8.847-15.643-13.313c-7.217-6.153-14.475-12.326-22.791-16.995
			c-3.678-2.065-5.732-4.304-8.104-7.942c-2.511-3.85-4.12-7.83-9.352-7.36c-3.16,0.284-7.166,2.452-8.902,5.222
			C247.472,314.713,250.845,312.941,253.036,315.691z"/>
		<path style="fill:#231815;" d="M335.063,396.021c0.681,12.366-3.348,24.254-4.027,36.519c-0.666,12.046,1.847,24.548,8.62,34.689
			c6.437,9.638,15.725,14.411,26.798,16.779c9.319,1.993,18.798,5.059,28.147,6.574c-0.134-0.022-0.689-0.267-0.757-0.402
			c0.518,1.031,9.495,3.015,10.9,3.636c3.942,1.742,7.389,3.978,10.818,6.57c-5.89-15.182-24.351-16.156-38.199-18.167
			c-13.126-1.906-25.964-5.182-34.02-16.591c-8.635-12.229-7.379-27.102-6.034-41.182c0.735-7.697,1.685-15.406,1.542-23.152
			c-0.08-4.314,0.233-17.157-4.37-19.905C334.12,381.174,335.029,394.151,335.063,396.021z"/>
		<path style="fill:#231815;" d="M376.173,469.631c8.565,0.839,17.049,2.872,24.945,6.326c3.648,1.595,14.76,6.223,15.906,10.916
			c-0.358-1.468-7.983-4.332-9.189-4.98c-5.206-2.796-10.516-5.199-16.265-6.641c-3.398-0.852-6.798-1.891-10.252-2.496
			c-3.39-0.594-11.841,0.579-14.677-1.565C366.985,471.451,374.771,469.746,376.173,469.631z"/>
		<path style="fill:#231815;" d="M388.806,462.003c8.58,2.215,17.4,4.265,25.234,8.553c3.386,1.854,14.955,9.581,12.878,15.174
			c0.904-2.433-7.99-9.252-9.392-10.262c-5.066-3.649-10.676-5.36-16.516-7.271c-3.156-1.033-22.084-4.755-22.173-6.916
			C378.825,460.995,387.915,461.923,388.806,462.003z"/>
		<path style="fill:#231815;" d="M369.413,393.078c-0.448,10.424-2.487,20.691-3.56,31.053c-1.108,10.706,1.43,18.497,11.775,23.086
			c9.763,4.331,20.592,5.591,30.515,9.522c3.979,1.577,7.89,3.535,11.243,6.226c1.067,0.856,6.543,8.352,6.585,8.353
			c-0.975-0.02-4.947-4.662-6.315-5.513c-2.015-1.252-4.166-2.264-6.362-3.153c-6.142-2.486-12.662-4.015-19.075-5.613
			c-13.501-3.363-30.616-6.642-33.752-22.717c-2.02-10.356,2.161-21.728,3.309-32.02c0.791-7.091,1.082-14.253,0.403-21.366
			c-0.204-2.142-2.822-10.801-1.556-12.592c0.319-0.452,4.736,11.492,5.008,12.659C368.552,384.968,369.13,389.021,369.413,393.078z
			"/>
		<path style="fill:#231815;" d="M241.14,315.071c-1.017,15.795-3.017,31.375-8.302,46.372c-2.42,6.867-5.383,13.544-8.755,19.995
			c-1.245,2.383-2.545,4.741-3.937,7.042c-0.632,1.044-3.483,4.013-3.456,4.825c-0.173-5.179,3.877-13.146,5.689-17.787
			c3.855-9.873,7.838-19.521,9.701-30.025c1.159-6.536,2.565-13.137,3.324-19.739c0.23-2.003,2.343-28.647,3.166-28.307
			C240.548,298.266,240.904,312.72,241.14,315.071z"/>
		<path style="fill:#231815;" d="M190.296,468.428c-7.423-0.877-22.309-0.535-25.856-9.012c-1.497-3.578-0.943-7.862,0.525-12.16
			c-0.384-0.06-0.769-0.238-1.12-0.577c-0.882-0.852-1.831-1.619-2.814-2.339c-1.785,4.974-3.002,10.437-1.528,15.418
			c2.146,7.251,9.504,9.891,16.231,11.181c6.856,1.314,13.872,1.334,20.823,1.579c3.357,0.118,6.769,0.171,10.086,0.735
			c0.869,0.148,5.63,2.21,6.245,1.966c-0.17,0.067-8.431-4.337-9.844-4.699C198.868,469.453,194.568,468.932,190.296,468.428z"/>
		<path style="fill:#231815;" d="M216.424,393.286c0.059,0.246-3.59,1.759-7.266,3.215c0.126,1.143,0.298,2.282,0.525,3.419
			C213.63,397.587,216.717,395.181,216.424,393.286z"/>
		<path style="fill:#231815;" d="M179.234,476.021c7.688,2.348,15.719,3.336,23.366,5.866c3.365,1.114,16.992,5.892,16.939,10.983
			c0.009-0.836-10.762-4.647-11.355-4.895c-5.608-2.34-11.116-3.274-16.971-4.578c-2.283-0.508-4.472-1.364-6.73-1.988
			c-2.716-0.751-13.713-1.97-14.757-5.699C169.666,475.498,177.916,475.998,179.234,476.021z"/>
		<path style="fill:#231815;" d="M184.546,486.556c6.325,2.094,12.973,3.316,18.903,6.485c1.99,1.064,11.425,7.149,9.529,10.779
			c1.417-2.714-19.587-10.145-22.257-11.111c-2.648-0.958-12.062-2.249-13.111-4.992
			C176.684,485.297,182.588,486.634,184.546,486.556z"/>
		<path style="fill:#231815;" d="M179.726,338.794c-0.541-2.589-1.159-5.103-1.83-7.473c-2.082-6.131-4.799-12-7.672-17.792
			c-1.517-0.695-3.094-1.193-4.719-1.515c3.632,8.703,6.806,17.272,8.784,26.391C176.101,338.534,177.913,338.67,179.726,338.794z"
			/>
		<path style="fill:#231815;" d="M202.066,508.612c-3.654-1.907-7.229-3.975-10.801-6.029c-8.366-4.81-16.446-9.933-25.416-13.56
			c-8.736-3.533-17.515-6.776-23.643-14.32c-1.351-1.664-2.446-3.417-3.33-5.232c-1.244,0.95-2.477,1.916-3.7,2.896
			c0.93,1.724,2.039,3.388,3.338,4.979c6.789,8.309,16.255,11.922,26.033,15.486c9.69,3.532,18.636,8.653,28.029,12.877
			c3.917,1.762,7.874,3.455,11.914,4.918c0.932,0.338,4.036,0.706,4.603,1.373C207.83,510.51,203.768,509.501,202.066,508.612z"/>
		<path style="fill:#231815;" d="M332.788,164.154c6.209,3.167,12.116,6.603,17.457,11.12c2.1,1.777,11.312,8.551,10.818,11.93
			c-0.045,0.309-7.311-3.096-7.641-3.321c-4.037-2.753-7.448-6.174-11.733-8.626c-2.659-1.521-17.897-10.034-17.171-11.367
			C325.083,162.854,331.82,164.071,332.788,164.154z"/>
		<path style="fill:#231815;" d="M372.569,200.439c5.299,11.596,11.754,26.45,7.653,39.335c-2.077,6.527-7.952,12.186-9.188,18.865
			c-0.628,3.393,0.875,5.703,3.233,8.005c0.858,0.838,4.646,4.718,5.557,4.701c-7.915,0.147-14.627-8.07-12.511-15.412
			c2.596-9.006,9.846-15.333,8.925-25.412c-0.717-7.85-2.943-16.177-6.033-23.418c-0.475-1.112-9.656-19.462-9.296-19.601
			C363.393,186.544,371.26,198.585,372.569,200.439z"/>
		<path style="fill:#231815;" d="M380.574,257.832c1.798,0.408,10.386-2.021,10.299,2.2c-0.035,1.729-4.153,2.142-5.171,2.344
			C381.646,263.184,376.391,262.844,380.574,257.832z"/>
		<path style="fill:#231815;" d="M389.443,263.814c0.568,2.185,4.129,9.142,0.643,10.837c-2.582,1.255-2.244-0.738-3.31-3.095
			C385.213,268.103,382.883,261.174,389.443,263.814z"/>
		<path style="fill:#231815;" d="M398.554,276.259c8.763-4.609,10.276-14.158,9.123-23.177c-0.165-1.291-4.259-21.808-3.693-21.844
			c2.459-0.155,6.588,13.128,6.981,14.664c1.631,6.381,3.055,13.777,1.715,20.348c-0.872,4.277-3.831,8.008-7.017,10.894
			c-2.41,2.182-12.302,9.052-15.97,5.772C389.683,282.908,397.553,277.283,398.554,276.259z"/>
		<path style="fill:#231815;" d="M326.779,121.203c10.951,9.044,22,17.928,32.911,27.038c5.415,4.522,10.805,9.205,15.331,14.641
			c0.371,0.445,7.679,11.663,6.75,11.718c-0.905,0.053-6.406-6.525-7.581-7.569c-3.923-3.486-7.799-7.033-11.793-10.437
			c-6.926-5.902-14.733-10.825-21.512-16.873c-4.432-3.954-8.427-8.03-13.208-11.651c-3.628-2.748-7.312-5.45-10.367-8.855
			c-0.275-0.307-5.442-6.93-3.832-7.246c1.12-0.22,5.624,4.579,6.648,5.287C322.248,118.721,324.501,120,326.779,121.203z"/>
		<path style="fill:#231815;" d="M392.353,182.873c3.574,8,5.462,16.638,7.296,25.165c0.857,3.982,1.733,7.962,2.539,11.955
			c0.305,1.512,2.158,7.189,1.26,8.628c0.094-0.15-4.264-6.057-4.659-6.878c-1.451-3.016-2.145-6.328-2.981-9.547
			c-1.565-6.025-3.584-11.932-4.823-18.004c-1.152-5.643-4.984-10.366-6.204-15.807c-0.677-3.018-0.295-2.729,2.074-1.125
			C388.944,178.672,390.679,181.015,392.353,182.873z"/>
		<path style="fill:#231815;" d="M45.527,354.887c18.594,0.513,37.204-0.268,55.802-0.124c8.558,0.066,17.134,0.257,25.662,1.027
			c0.859,0.078,9.177,1.838,9.567,1.497c-1.417,1.238-8.736,1.106-10.501,1.297c-9.008,0.975-18.067,0.706-27.11,0.852
			c-10.397,0.167-20.91,1.42-31.293,0.853c-5.539-0.302-11.071-0.421-16.62-0.449c-6.678-0.034-16.183,1.22-22.629-1.228
			c-2.632-1-2.742-0.716-0.349-1.682C32.89,354.978,40.258,355.622,45.527,354.887z"/>
		<path style="fill:#231815;" d="M141.363,379.845c1.283,18.729,3.306,36.785,2.545,55.639c-0.322,7.979-0.814,15.969-1.749,23.902
			c-0.07,0.591-1.696,8.634-1.572,8.738c-0.523-0.438-0.407-3.878-0.499-4.617c-0.537-4.309-0.939-8.594-1.033-12.94
			c-0.265-12.31,0.701-24.6,0.005-36.915c-0.414-7.329-0.703-14.715-1.403-22.026c-0.625-6.527-1.62-13.026-1.608-19.597
			c0.001-0.567,0.648-11.315,1.818-10.716c1.295,0.663,1.344,8.385,1.587,9.762C139.974,374.022,140.635,376.943,141.363,379.845z"
			/>
		<path style="fill:#231815;" d="M118.219,472.688c-16.083-1.302-31.7-0.575-47.716,1.153c-7.492,0.808-15.016,1.581-22.562,1.472
			c-2.825-0.041-5.663-0.173-8.466-0.541c-1.333-0.175-5.197-1.769-6.039-1.426c2.78-1.134,7.555-0.782,10.605-1.194
			c5.249-0.71,10.512-1.225,15.778-1.784c10.899-1.157,21.819-3.444,32.769-3.988c6.802-0.338,13.882,0.688,20.669,1.08
			c1.073,0.062,23.803,2.096,23.295,3.196C135.586,472.75,120.912,472.438,118.219,472.688z"/>
		<path style="fill:#231815;" d="M30.588,377.985c-0.378,15.933-4.448,31.438-3.651,47.413c0.369,7.397,1.295,14.762,1.282,22.176
			c-0.005,2.804-0.089,5.626-0.444,8.41c-0.169,1.324-1.767,5.163-1.43,5.989c-1.108-2.71-0.788-7.497-1.23-10.492
			c-0.65-4.405-1.23-8.809-1.703-13.237c-1.134-10.612-2.043-21.117-1.148-31.781c0.656-7.819,2.778-15.366,3.224-23.235
			c0.101-1.779,0.292-23.236,0.627-23.159C28.707,360.66,30.228,375.525,30.588,377.985z"/>
		<path style="fill:#231815;" d="M143.557,354.626c6.012,0.514,13.3-0.828,18.7,2.512c6.844,4.232-4.062,2.952-6.679,2.801
			c-3.606-0.209-6.7,0.033-10.28-0.338c-1.333-0.138-5.554,0.322-5.993-1.584C138.957,356.504,142.299,355.39,143.557,354.626z"/>
		<path style="fill:#231815;" d="M166.676,382.293c-0.927,23.813-1.56,47.312,0.577,71.075c0.362,4.031-0.522,2.978-4.387,4.549
			c-5.347,2.174-9.861,5.718-14.76,8.687c-0.719,0.436-10.211,4.487-10.176,4.29c0.09-0.51,5.048-3.351,5.567-3.776
			c2.895-2.372,5.528-5.047,8.434-7.406c2.553-2.073,9.417-4.605,10.703-6.992c0.908-1.684-0.944-8.129-1.117-10.081
			c-0.363-4.104-0.607-8.217-0.8-12.333c-0.263-5.591-0.608-11.218-0.6-16.818c0.008-5.789,0.829-11.589,1.118-17.369
			c0.368-7.358,0.49-14.722,0.776-22.083c0.081-2.092-0.724-12.478,1.46-13.935C163.19,360.288,166.435,380.052,166.676,382.293z"/>
		<path style="fill:#231815;" d="M63.567,343.076c4.626-14.454,9.613-29.004,16.976-42.329c3.337-6.04,7.178-12.048,12.312-16.732
			c1.772-1.617,3.695-3.167,5.876-4.199c0.241-0.114,6.115-1.937,5.865-1.134c-0.045,0.145-4.039,2.17-4.376,2.448
			c-1.466,1.214-2.711,2.706-3.92,4.166c-3.325,4.016-6.33,8.427-8.985,12.908c-4.692,7.92-7.687,16.332-10.936,24.874
			c-2.138,5.621-4.789,10.93-6.639,16.69c-0.224,0.697-6.072,20.68-6.918,20.27C60.715,359.017,63.327,345.28,63.567,343.076z"/>
		<path style="fill:#231815;" d="M139.418,293.111c-0.207,12.689,1.212,25.381,2.654,37.968c0.167,1.458,2.543,27.733,2.192,27.678
			c-1.677-0.261-4.491-12.701-4.763-13.945c-1.929-8.817-2.716-17.929-4.071-26.849c-0.837-5.512-0.686-10.794-0.77-16.345
			c-0.071-4.745-0.342-9.502-0.022-14.244c0.137-2.038-0.044-6.825,1.685-8.267C136.275,279.146,139.055,291.405,139.418,293.111z"
			/>
		<path style="fill:#231815;" d="M193.186,125.383c8.105,13.367,11.953,29.299,13.988,44.653c1.032,7.791,1.549,15.676,1.359,23.535
			c-0.062,2.551-0.19,5.105-0.444,7.644c-0.14,1.404-1.618,5.69-1.216,6.525c-2.074-4.313-1.861-12.397-2.328-17.044
			c-1.107-11.008-1.87-21.907-4.663-32.662c-1.969-7.584-3.794-15.637-7.005-22.799c-2.212-4.932-5.091-9.598-8.56-13.746
			c-0.407-0.487-6.455-6.71-5.939-7.089C181.178,112.344,191.583,123.534,193.186,125.383z"/>
		<path style="fill:#231815;" d="M153.901,212.65c11.969,4.753,24.576,7.491,36.548,12.195c1.899,0.746,28.003,11.712,28.416,10.846
			c-0.704,1.475-10.562-0.064-12.151-0.372c-6.016-1.163-11.678-3.752-17.408-5.842c-8.571-3.126-17.409-4.896-25.931-8.137
			c-5.206-1.98-10.524-3.673-15.654-5.852c-1.418-0.603-7.998-2.659-8.382-4.573c-0.321-1.601,1.181-0.697,2.596-0.532
			C145.925,210.848,149.924,211.994,153.901,212.65z"/>
		<path style="fill:#231815;" d="M220.158,230.617c2.554-0.899,19.453-14.388,21.865-10.864c1.113,1.627-12.26,11.658-13.682,12.52
			c-2.165,1.313-7.137,4.185-9.578,3.607C214.35,234.834,218.562,232.969,220.158,230.617z"/>
		<path style="fill:#231815;" d="M219.811,253.734c0.852,15.419,1.509,30.838,1.03,46.283c-0.202,6.522-0.566,13.06-1.388,19.536
			c-0.103,0.814-0.394,7.044-1.466,7.346c0.004-0.001-1.734-13.709-1.765-14.413c-0.454-10.154,0.229-20.318-0.421-30.481
			c-0.412-6.441-0.13-12.782-0.366-19.222c-0.047-1.286-1.564-24.588-0.195-24.294C217.168,238.904,219.266,251.683,219.811,253.734
			z"/>
		<path style="fill:#231815;" d="M201.777,324.052c-9.242-2.805-18.928-3.722-28.218-6.343c-9.495-2.679-18.765-6.125-28.084-9.346
			c-3.69-1.275-7.391-2.518-11.099-3.741c-1.06-0.35-4.174-0.703-4.86-1.601c-1.384-1.812-0.146-3.825,1.885-2.091
			c-0.011-0.018-1.594,0.289-1.825,0.29c0.163,0.202,0.685,0.794,0.69,0.798c16.895-0.165,32.882,8.098,49.22,11.581
			c6.24,1.33,12.447,3.036,18.67,4.484c4.55,1.059,9.127,2.199,13.291,4.386c0.342,0.18,7.654,4.902,6.124,5.705
			c-0.98,0.515-6.84-2.574-8.09-2.889C206.96,324.651,204.363,324.287,201.777,324.052z"/>
		<path style="fill:#231815;" d="M240.585,240.374c0.149,12.244,3.026,24.529,3.912,36.765c0.469,6.476,0.904,12.993,0.466,19.484
			c-0.066,0.975-1.764,12.274-2.449,11.896c-0.263-0.145-0.376-4.615-0.452-5.233c-0.481-3.893-0.952-7.763-1.226-11.678
			c-0.638-9.141-1.083-18.43-2.733-27.46c-1.024-5.607-1.338-11.294-1.895-16.972c-0.424-4.323-0.929-8.719-0.305-13.05
			c0.091-0.633,2.559-9.316,3.882-7.88c0.56,0.608-0.416,6.803-0.326,7.857C239.639,236.214,240.082,238.319,240.585,240.374z"/>
		<path style="fill:#231815;" d="M218.809,322.022c5.002-5.944,15.993-20.791,25.435-18.874c0.199,0.04-5.657,6.111-6.14,6.498
			c-3.745,2.999-6.523,6.456-9.876,9.749c-2.586,2.539-4.872,5.596-7.519,8.036C215.927,331.84,217.915,325.418,218.809,322.022z"/>
		<path style="fill:#231815;" d="M144.74,205.248c5.192-3.254,9.069-9.021,15.351-10.377c8.643-1.866,0.845,3.719-1.908,5.76
			c-3.033,2.249-5.044,4.774-8.198,6.8c-1.143,0.734-5.178,4.7-6.82,3.011C142.082,209.327,144.186,206.704,144.74,205.248z"/>
		<path style="fill:#231815;" d="M179.276,196.673c11.697,3.325,23.35,7.002,34.594,11.654c5.224,2.161,10.392,4.535,15.296,7.355
			c0.105,0.061,6.059,3.878,5.765,4.08c-1.381,0.947-10.224-2.336-11.546-2.767c-7.895-2.576-15.401-6.144-23.411-8.434
			c-4.886-1.396-9.437-3.293-14.246-4.89c-3.845-1.277-7.797-2.184-11.68-3.335c-1.697-0.503-6.944-1.438-7.952-3.344
			C165.87,196.564,177.73,196.613,179.276,196.673z"/>
		<path style="fill:#231815;" d="M158.773,210.639c-0.052-7.369-0.92-14.715-0.448-22.089c0.253-3.947,1.25-16.483,7.256-16.738
			c-5.334,0.418,0.448,47.227-3.286,47.023C161.158,218.773,159.261,211.845,158.773,210.639z"/>
		<path style="fill:#231815;" d="M192.333,208.164c-1.913-18.721-1.122-37.88-5.419-56.302c-1.916-8.213-4.989-16.189-10.229-22.878
			c-2.327-2.971-5.027-5.651-7.988-7.988c-2.428-1.916-7.152-3.712-8.898-6.164c1.194,1.678,9.191,3.265,11.394,4.539
			c4.426,2.559,8.212,6.024,11.206,10.16c7.732,10.682,10.349,24.342,12.149,37.137c1.325,9.42,1.17,18.676,1.64,28.148
			c0.324,6.52,0.975,13.024,1.907,19.484c0.395,2.736,4.001,13.374,2.436,15.509c-0.478,0.652-4.774-9.798-5.021-10.522
			C194.269,215.63,193.286,211.905,192.333,208.164z"/>
		<path style="fill:#231815;" d="M364.672,321.385c-0.339-11.635-1.279-24.583,2.221-35.81c0.481-1.543,10.967-25.221,11.281-25.039
			c0.577,0.334-0.332,6.467-0.44,7.201c-0.53,3.591-1.806,6.966-3.111,10.332c-2.848,7.344-4.935,14.021-4.531,21.979
			c0.249,4.895-0.543,9.673-0.612,14.573c-0.058,4.138,0.164,8.27,0.475,12.395c0.126,1.67,1.106,5.571,0.156,7.082
			C369.69,334.766,365.078,322.969,364.672,321.385z"/>
		<path style="fill:#231815;" d="M397.401,295.236c1.767,6.789,3.881,13.505,4.895,20.466c0.374,2.567,2.212,14.446-1.294,16.117
			c0.222-0.106-4.817-20.74-5.365-22.699c-0.731-2.615-5.646-19.792-3.562-20.305C393.242,288.527,396.812,294.451,397.401,295.236z
			"/>
		<path style="fill:#231815;" d="M366.754,330.438c8.337,1.64,16.879,2.323,25.345,2.876c4.041,0.264,8.09,0.497,12.138,0.597
			c1.605,0.039,7.091-0.779,8.451,0.02c-0.007-0.004-7.579,3.692-8.295,3.832c-4.07,0.799-8.467,0.405-12.583,0.311
			c-4.637-0.106-9.486,0.222-14.057-0.597c-5.737-1.028-12.001-1.659-17.522-3.458c-1.983-0.646-4.934-1.388-2.383-2.78
			C359.738,330.208,364.43,330.716,366.754,330.438z"/>
		<path style="fill:#231815;" d="M417.243,346.178c-0.055-2.106,1.267-9.76-2.074-7.266c-2.893,2.159-2.02,8.848-1.644,11.738
			c1.227,9.426,3.718,18.204,3.905,27.8c0.202,10.337-0.338,20.746-0.708,31.078c-0.334,9.318-2.546,21.347,0.284,30.398
			c2.919,9.337,3.069-4.576,2.96-7.201c-0.357-8.578-1.168-17.077-1.013-25.672c0.172-9.515,0.313-19.029,0.545-28.543
			c0.124-5.072,0.281-10.186-0.12-15.25C418.925,357.542,417.345,351.924,417.243,346.178z"/>
		<path style="fill:#231815;" d="M409.313,449.174c-6.063-1.531-23.117-1.777-24.882-9.983c-0.107-0.498,10.787,2.215,11.49,2.373
			c2.832,0.635,5.682,0.678,8.449,1.34c1.932,0.463,10.23,1.33,10.709,3.642C415.509,448.621,411.046,448.654,409.313,449.174z"/>
		<path style="fill:#231815;" d="M420.371,333.949c2.462-0.231,27.781-3.167,26.913,1.225c-0.467,2.366-17.217,3.173-19.398,3.338
			c-2.689,0.204-7.727,1.283-10.137,0.46C413.247,337.436,417.791,335.742,420.371,333.949z"/>
		<path style="fill:#231815;" d="M450.178,359.582c0.505,9.693,2.254,19.275,2.373,28.999c0.082,6.761-0.394,13.558-0.656,20.311
			c-0.343,8.844-0.6,17.701-1.501,26.511c-0.038,0.372-1.399,9.472-1.553,9.392c-1.573-0.813-1.648-13.998-1.728-15.618
			c-0.607-12.35,0.463-24.746,0.224-37.105c-0.153-7.909-0.5-15.913-1.26-23.794c-0.55-5.704-1.291-11.401-1.012-17.145
			c0.031-0.645,1.118-10.142,2.275-9.467c1.184,0.691,0.931,8.112,1.131,9.455C448.896,353.969,449.498,356.786,450.178,359.582z"/>
		<path style="fill:#231815;" d="M428.399,445.186c4.198-2.471,8.785-4.638,13.544-5.758c1.407-0.331,9.333-2.162,10.147,0.117
			c0.629,1.761-14.246,6.826-16.118,7.631c-2.007,0.864-5.794,3.654-7.696,3.67C424.586,450.878,427.06,447.56,428.399,445.186z"/>
		<path style="fill:#231815;" d="M414.483,286.215c4.117,7.832,7.377,16.11,9.462,24.717c0.669,2.759,4.224,14.415,1.601,17.082
			c-0.046,0.047-4.194-8.715-4.365-9.269c-2.051-6.627-4.315-12.901-6.678-19.382c-1.938-5.314-4.57-10.073-6.787-15.274
			C404.434,276.391,411.988,283.909,414.483,286.215z"/>
		<path style="fill:#231815;" d="M89.722,351.517c1.407-6.18-3.305-12.371-1.891-18.638c1.608-7.125,3.659,0.581,4.42,3.693
			c1.265,5.171,3.149,9.06,2.449,14.496c-0.161,1.253-1.118,6.416-3.623,5.275C90.383,356.027,90.244,352.41,89.722,351.517z"/>
		<path style="fill:#231815;" d="M109.882,334.163c16.402,0.743,32.838,1.122,49.254,1.377c7.895,0.123,15.853,0.362,23.638,1.789
			c1.156,0.212,14.678,4.79,14.107,5.237c-0.361,0.282-6.465-1.174-7.066-1.226c-2.926-0.252-5.869-0.34-8.803-0.467
			c-8.279-0.36-16.533-0.672-24.823-0.578c-11.311,0.128-22.348-0.205-33.612-0.796c-2.596-0.136-30.584,0.958-31.252-2.469
			C91.063,335.68,107.462,334.478,109.882,334.163z"/>
		<path style="fill:#231815;" d="M211.244,361.58c0.255,14.807-0.985,29.581-2.527,44.294c-0.719,6.862-1.491,13.719-2.314,20.569
			c-0.219,1.825-2.641,10.957-1.986,12.168c-2.286-4.233-1.693-13.066-1.565-17.574c0.292-10.248,1.792-20.445,2.124-30.701
			c0.211-6.527,1.159-12.947,1.372-19.469c0.046-1.42-0.433-25.682,0.294-25.538C208.991,345.794,210.713,359.163,211.244,361.58z"
			/>
		<path style="fill:#231815;" d="M198.54,443.156c-5.181-0.043-10.355,1.24-15.541,0.672c-3.897-0.427-3.102-1.392-3.101-4.87
			c0.654,0.183,2.883,0.836,3.316,1.72c0.105,0.214-3.272,1.704-3.316,1.719c-1.282-4.29,9.96-4.021,13.063-4.208
			c1.957-0.118,7.953-0.814,9.274,0.856C203.801,441.023,200.068,442.055,198.54,443.156z"/>
		<path style="fill:#231815;" d="M172.868,425.114c-1.078-14.21-0.842-28.533,0.321-42.73c0.472-5.763,1.076-11.544,2.042-17.248
			c0.092-0.541,1.647-6.142,1.549-6.272c1.982,2.646,1.456,11.33,1.444,14.325c-0.037,9.064-1.096,18.073-0.76,27.154
			c0.199,5.386-0.318,10.67-0.203,16.048c0.099,4.625,0.656,9.221,1.099,13.821c0.196,2.036,1.399,6.476,0.181,8.279
			C178.375,438.736,173.419,426.816,172.868,425.114z"/>
		<path style="fill:#231815;" d="M172.736,446.557c-1.997-1.232-9.734-0.269-10.293-3.651c-0.395-2.39,4.966-2.235,6.039-2.262
			C172.921,440.537,179.147,443.256,172.736,446.557z"/>
		<path style="fill:#231815;" d="M112.938,324.544c0.466-8.411,0.021-16.845,1.158-25.218c0.456-3.358,3.084-19.32,8.633-19.295
			c-1.42-0.006-4.051,21.077-4.126,22.706c-0.182,3.954,0.22,7.761-0.233,11.677c-0.513,4.43,1.456,15.464-1.747,18.852
			C114.181,335.846,113.494,326.511,112.938,324.544z"/>
		<path style="fill:#231815;" d="M149.729,296.32c4.438,9.637,6.644,20.267,8.806,30.597c1.06,5.063,1.908,10.207,3.256,15.204
			c0.14,0.52,4.038,8.455,4.249,7.786c-0.458,1.453-5.224-2.467-5.308-2.557c-1.962-2.098-3.076-5.033-3.943-7.717
			c-2.289-7.082-3.412-14.529-5.609-21.652c-1.586-5.143-2.229-10.518-4.152-15.565c-0.339-0.891-8.022-13.564-7.962-13.639
			C140.941,286.474,148.648,294.954,149.729,296.32z"/>
		<path style="fill:#231815;" d="M240.958,46.904c-7.19,1.642-4.324-17.599,2.548-17.13
			C248.916,30.124,246.991,46.883,240.958,46.904z"/>
		<path style="fill:#231815;" d="M298.339,29.576c-6.03,2.185-5.211-14.599,0-14.213C302.134,15.796,302.125,28.771,298.339,29.576z
			"/>
		<path style="fill:#231815;" d="M467.053,339.42c2.481,15.3,6.569,29.779,11.831,44.336c2.369,6.552,4.72,13.128,6.356,19.909
			c0.555,2.298,1.054,4.617,1.383,6.96c0.12,0.857-0.116,5.411,0.232,5.825c-0.976-1.16-1.535-3.952-2.168-5.365
			c-1.689-3.771-3.347-7.542-4.833-11.399c-3.95-10.252-7.955-20.518-11.677-30.856c-2.503-6.953-3.326-14.185-4.658-21.427
			c-0.207-1.123-4.012-24.39-2.666-24.181C463.014,323.557,466.213,337.042,467.053,339.42z"/>
		<path style="fill:#231815;" d="M462.157,419.539c6.235-2.839,20.984-12.816,27.938-7.222c0.171,0.138-6.586,3.269-7.361,3.542
			c-4.11,1.448-7.627,3.532-11.527,5.272c-2.674,1.193-7.376,4.103-10.148,4.138C456.024,425.331,460.157,422.149,462.157,419.539z"
			/>
		<path style="fill:#231815;" d="M437.854,323.056c-15.01-4.897-29.166-9.353-44.745-11.887c-1.762-0.287-35.059-6.999-34.332-8.508
			c0.345-0.716,13.77,0.911,14.677,1.002c11.324,1.141,22.65,3.078,33.916,4.715c7.502,1.09,13.788,3.565,20.796,6.178
			c2.041,0.761,27.556,9.051,27.687,8.73C454.775,325.915,440.215,323.382,437.854,323.056z"/>
		<path style="fill:#231815;" d="M359.598,308.914c-3.693,1.382-9.258,7.237-13.446,6.309c-3.563-0.79-0.216-3.5,1.869-5.122
			c2.698-2.098,4.67-3.791,7.847-4.846C361.253,303.467,361.638,304.129,359.598,308.914z"/>
		<path style="fill:#231815;" d="M369.716,315.739c14.389,3.612,27.934,8.858,42.648,11.328c6.904,1.159,13.844,2.182,20.646,3.865
			c2.394,0.592,4.787,1.237,7.115,2.057c0.9,0.317,4.269,2.329,4.726,2.213c-1.53,0.388-4.475-0.366-6.082-0.433
			c-3.785-0.158-7.554-0.404-11.32-0.84c-9.846-1.14-19.762-2.575-29.507-4.384c-7.985-1.482-14.989-4.865-22.701-7.227
			c-1.266-0.388-22.494-4.789-22.531-4.078C352.881,314.902,367.552,315.598,369.716,315.739z"/>
		<path style="fill:#231815;" d="M445.013,332.872c5.287-1.54,8.394-8.602,14.18-8.962c6.123-0.381-1.81,5.596-3.292,7.044
			c-2.887,2.82-4.835,5.053-8.861,6.354c-1.089,0.352-4.311,1.355-4.691-0.645C442.172,335.724,444.561,333.809,445.013,332.872z"/>
		<path style="fill:#231815;" d="M319.556,276.553c-6.869,2.129-18.781,6.257-21.504,13.747c-1.097,3.018-0.018,3.451,2.974,3.939
			c3.136,0.512,6.297,0.585,9.465,0.375c7.034-0.466,13.898-2.202,20.979-2.219C328.806,286.302,323.975,281.396,319.556,276.553z"
			/>
		<path style="fill:#231815;" d="M336.749,303.571c-6.896-6.116-18.705,3.697-24.459,7.338c6.525,7.762,19.624,3.728,28.293,5.772
			C341.221,312.435,340.569,306.304,336.749,303.571z"/>
		<path style="fill:#231815;" d="M159.906,121.816c4.208,2.955,7.85,12.884,5.677,17.657c-3.213,7.059-13.824,0.457-19.124,0.642
			C150.533,133.038,150.849,124.637,159.906,121.816z"/>
		<path style="fill:#231815;" d="M142.713,148.834c5.962,0.097,11.849,8.402,6.165,12.609
			C140.364,167.744,136.632,152.587,142.713,148.834z"/>
		<path style="fill:#231815;" d="M324.468,124.272c2.89,5.715-2.119,16.571,8.596,17.218
			C348.701,142.435,332.318,128.296,324.468,124.272z"/>
		<path style="fill:#231815;" d="M349.03,145.151c10.579,4.201,4.915,12.46-4.807,10.926
			C345.428,151.626,348.606,147.967,349.03,145.151z"/>
		<path style="fill:#231815;" d="M199.205,89.888c0.4-6.134,15.958-28.064,18.265-14.939
			C214.127,77.616,202.537,106.561,199.205,89.888z"/>
		<path style="fill:#231815;" d="M297.222,40.767c4.133,0.59,4.094,5.731,0,5.731C293.128,46.498,291.491,39.949,297.222,40.767z"/>
		<path style="fill:#231815;" d="M311.96,39.949c-5.731-1.638-6.551-4.912-1.637-4.912C315.235,35.036,311.96,39.949,311.96,39.949z
			"/>
	</g>
</g>
</svg>
